<?xml version="1.0" ?><svg id="Layer_1" style="enable-background:new 0 0 64 64;" version="1.1" viewBox="0 0 64 64" xml:space="preserve" xmlns="http://www.w3.org/2000/svg" xmlns:xlink="http://www.w3.org/1999/xlink"><path d="M51.25303,56.46877v-5.65002l-0.77997-0.19c-0.93005-0.20996-1.71002-0.75-2.21002-1.5  c-1.59998-2.39996-0.64001-4.73999-0.57001-4.89996c1.17999-3.42004,1.16998-10.39001,0.94-15.63  c-0.13-3.01001-0.65002-5.85004-1.56-8.45001c-4.44-12.72998-15.01001-18.90002-17.04999-19.98999  c-0.35999-0.21002-0.81-0.21002-1.16998,0c-0.37006,0.20996-0.59003,0.59998-0.59003,1.02997v6.42004  c-0.39001-0.04004-0.78003-0.06-1.16998-0.05005c-2.92999,0.06-5.75,1.57001-7.54004,4.02002  c-2.15997,3-5.59998,5.84998-7.48999,7.29999c-0.5933,0.45772-1.29434,0.7358-2.03007,0.80994  c-0.18786,0.01893-0.30328,0.20766-0.21682,0.37551l4.58671,8.90363c0.08996,0.17463,0.32957,0.19202,0.44596,0.03377  c0.62949-0.85598,1.68973-3.16427,12.02423-3.71281c-1.67999,2.16998-3.70996,6.03998-6.06,11.57001  c-1.13,2.64996-1.70001,5.44995-1.70001,8.32996c-0.01996,1.06-0.66998,2.5-1.84998,4.05005  c-0.54999,0.71997-1.34998,1.20996-2.26001,1.38995l-0.81,0.15002v5.69h-2.96997v7.52997h42.98999v-7.52997H51.25303z   M37.29301,14.12875c0.39001,0.33002,9.36005,8.36005,5.78003,25.15002l-1.95001-0.41998  c3.34003-15.64001-5.04999-23.15002-5.14001-23.22003L37.29301,14.12875z M25.76304,16.77877  c-0.79999,0-1.45001-0.65002-1.45001-1.45001s0.65002-1.45001,1.45001-1.45001c0.78998,0,1.44,0.65002,1.44,1.45001  S26.55302,16.77877,25.76304,16.77877z M49.25303,56.46877h-33.06v-4.10004c1.04999-0.35999,1.97998-1.02997,2.66003-1.91998  c0.84998-1.12,1.45996-2.17999,1.82996-3.16998h24.75c0.14001,0.91998,0.48004,1.94,1.16003,2.96002  c0.63995,0.95996,1.56,1.67999,2.65997,2.09998V56.46877z"/></svg>