<?xml version="1.0" ?><svg fill="#fff" data-name="Layer 1" id="Layer_1" viewBox="0 0 512 512" xmlns="http://www.w3.org/2000/svg"><path d="M452.13,328.63l-14.22-46.31a6.22,6.22,0,0,0-3.19-3.77,231.89,231.89,0,0,0-25.87-10.86l-14.54-48.38a6.31,6.31,0,0,0-6.7-4.43,206.7,206.7,0,0,0-25.25,5,6.28,6.28,0,0,0-.27-1.33l-16.52-39.39a6.26,6.26,0,0,0-3.47-3.4,6.16,6.16,0,0,0-4.84.1c-.72.31-61.29,28.09-81.26,95.07-20-67-80.54-94.76-81.26-95.07a6.26,6.26,0,0,0-8.31,3.3l-16.52,39.39a6.28,6.28,0,0,0-.27,1.33,206.7,206.7,0,0,0-25.25-5,6.38,6.38,0,0,0-6.7,4.43l-14.54,48.38a230,230,0,0,0-25.87,10.86,6.22,6.22,0,0,0-3.19,3.77L59.87,328.63a6.27,6.27,0,0,0,8.58,7.53c124-56.24,157.44-3.09,157.74-2.59a6.23,6.23,0,0,0,5.43,3.15h48.76a6.37,6.37,0,0,0,5.41-3.1c.33-.53,33.77-53.68,157.76,2.54a6.27,6.27,0,0,0,8.58-7.53Zm-57.74-65.54C345.57,249.83,308.94,261,285,275.15c32.86-33.33,82.86-44.32,98.92-47Zm-57.74-72.85,13.82,32.95c-26,8.09-59.88,23.71-82.87,52.56C282.11,225.23,321.8,198.6,336.65,190.24Zm-161.3,0c14.85,8.36,54.54,35,69.05,85.51-23-28.85-56.87-44.47-82.87-52.56ZM128.12,228.1c16.06,2.73,66.07,13.72,98.93,47-24-14.14-60.63-25.32-109.44-12.07Zm149,96.1H234.89c-9.24-11.94-49.45-50.54-159-4.92l9.43-30.7c109.35-53,163.37,19.82,165.64,23,.06.09.18.12.25.21a5.58,5.58,0,0,0,.37.48c.05.05.08.12.13.17a6.9,6.9,0,0,0,.63.42c.18.13.33.24.52.36s.26.22.41.3l.25.1.22.12,0,0A5.94,5.94,0,0,0,255,314a5.63,5.63,0,0,0,.68.17h.56A5.63,5.63,0,0,0,257,314a5.94,5.94,0,0,0,1.31-.25l0,0a2.53,2.53,0,0,0,.23-.12,4.37,4.37,0,0,0,.65-.4l.53-.36a6.27,6.27,0,0,0,.63-.42c.05-.05.08-.12.13-.17a4.7,4.7,0,0,0,.38-.5c.07-.08.19-.12.26-.21.54-.78,55.88-76.17,165.62-23l9.43,30.7C326.58,273.64,286.36,312.26,277.11,324.2Z"/></svg>