<?xml version="1.0" ?><!DOCTYPE svg  PUBLIC '-//W3C//DTD SVG 1.1//EN'  'http://www.w3.org/Graphics/SVG/1.1/DTD/svg11.dtd'><svg fill="#fff" enable-background="new 0 0 24 24" height="24px" id="Layer_1" version="1.1" viewBox="0 0 24 24" width="24px" xml:space="preserve" xmlns="http://www.w3.org/2000/svg" xmlns:xlink="http://www.w3.org/1999/xlink"><g><path d="M20.4,2.6C16.1-1.6,10.5-0.2,7,3.3c-3.1,3.1-4.6,7.9-2,11.9l-5.7,4.7c-0.4,0.4-0.4,1,0,1.4l2.4,2.4c0.4,0.4,1,0.4,1.4,0   L7.8,18c4,2.6,8.8,1.1,11.9-2C23.2,12.5,24.6,6.9,20.4,2.6z M2.4,22.8l-2.3-2.3L4,17.3L5.7,19L2.4,22.8z M6.2,18.2l-1.4-1.4   l1.4-1.4l1.4,1.4L6.2,18.2z M7.7,15.3C5.4,13,5.2,10.4,6.1,8.1l8.8,8.8C12.6,17.8,9.9,17.6,7.7,15.3z M15.8,16.4L6.6,7.2   C7,6.3,7.7,5.4,8.4,4.7C11.1,2,15.4,0.5,19,4c3.5,3.5,2,7.9-0.7,10.6C17.5,15.3,16.7,16,15.8,16.4z"/><path d="M20,18c-1.7,0-3,1.3-3,3s1.3,3,3,3s3-1.3,3-3S21.7,18,20,18z M20,23c-1.1,0-2-0.9-2-2s0.9-2,2-2s2,0.9,2,2S21.1,23,20,23z"/></g></svg>