<svg width="310" height="374" viewBox="0 0 310 374" fill="none" xmlns="http://www.w3.org/2000/svg">
<path d="M154.612 334.326L132.845 342.118L154.612 373.5L176.384 342.118L154.612 334.326Z" fill="#10D3A4"/>
<path d="M195.28 277.332C195.28 280.644 192.574 283.35 189.264 283.35H119.954C116.647 283.35 113.943 280.644 113.943 277.332C113.943 274.02 116.65 271.311 119.954 271.311H189.267C192.574 271.311 195.28 274.023 195.28 277.332ZM154.612 63.0335C157.919 63.0335 160.633 60.3326 160.633 57.0178V6.52094C160.633 3.21661 157.919 0.5 154.612 0.5C151.305 0.5 148.591 3.21661 148.591 6.52094V57.0178C148.591 60.3326 151.305 63.0335 154.612 63.0335ZM206.53 76.9561C209.401 78.6096 213.094 77.6196 214.756 74.7489L234.122 41.1962C235.778 38.3333 234.785 34.6345 231.912 32.981C229.049 31.3249 225.35 32.3176 223.702 35.1778L204.328 68.7384C202.677 71.5987 203.665 75.2974 206.53 76.9561ZM244.539 114.955C246.193 117.818 249.891 118.818 252.757 117.162L286.307 97.7878C289.175 96.1343 290.168 92.4356 288.514 89.5727C286.858 86.7046 283.159 85.7172 280.296 87.3707L246.746 106.737C243.876 108.393 242.88 112.089 244.539 114.955ZM258.457 166.881C258.457 170.188 261.16 172.902 264.467 172.894H303.218C306.52 172.894 309.226 170.188 309.226 166.881C309.226 163.569 306.52 160.865 303.218 160.865H264.467C261.152 160.865 258.457 163.572 258.457 166.881ZM102.696 76.9561C105.558 75.2974 106.556 71.5987 104.892 68.7384L85.5209 35.1752C83.8648 32.3123 80.1713 31.3197 77.3058 32.9784C74.4324 34.6319 73.4451 38.3307 75.1038 41.1936L94.4753 74.7463C96.134 77.6196 99.8275 78.607 102.696 76.9561ZM64.684 114.955C66.3401 112.087 65.3475 108.393 62.4846 106.737L28.9319 87.3628C26.0638 85.7198 22.3598 86.6967 20.7089 89.5701C19.0554 92.433 20.0533 96.137 22.9162 97.7852L56.4663 117.159C59.337 118.808 63.0305 117.818 64.684 114.955ZM50.7718 166.873C50.7718 163.566 48.0657 160.86 44.7639 160.852H6.01571C2.70354 160.86 0 163.569 0 166.873C0 170.183 2.70615 172.894 6.01571 172.894H44.7639C48.0657 172.894 50.7718 170.183 50.7718 166.873ZM195.28 293.856C195.28 290.544 192.574 287.838 189.264 287.838H119.954C116.647 287.838 113.943 290.544 113.943 293.856C113.943 297.166 116.65 299.872 119.954 299.872H189.267C192.574 299.87 195.28 297.163 195.28 293.856ZM134.294 304.357C137.121 312.883 145.14 319.042 154.612 319.042C164.086 319.042 172.105 312.883 174.931 304.357H134.294ZM154.612 166.615H154.619C158.663 162.796 164.911 155.513 164.911 149.051C164.911 143.019 160.288 138.109 154.619 138.109C148.93 138.109 144.315 143.022 144.315 149.051C144.315 155.513 150.568 162.796 154.612 166.615ZM148.878 179.534C149.617 179.072 150.304 178.583 150.973 178.139C151.639 177.693 152.266 177.269 152.848 176.875C153.102 176.705 153.817 176.165 154.622 175.556C155.411 176.165 156.127 176.705 156.385 176.875C156.968 177.272 157.592 177.693 158.261 178.139C158.922 178.583 159.619 179.072 160.358 179.534C161.829 180.459 163.401 181.446 164.976 182.434L165.125 182.525L165.264 182.614L165.342 182.656L165.632 182.82L166.23 183.157C166.627 183.379 167.017 183.596 167.408 183.813C168.189 184.252 168.965 184.685 169.707 185.101C171.282 185.887 172.75 186.624 174.009 187.263C175.025 187.734 175.895 188.139 176.58 188.46L163.778 262.02H145.446L132.646 188.46C133.333 188.141 134.203 187.736 135.217 187.263C136.473 186.626 137.949 185.887 139.519 185.101C140.268 184.685 141.034 184.252 141.815 183.813C142.207 183.596 142.604 183.379 143.001 183.157L143.591 182.82L143.886 182.656L143.965 182.614L144.098 182.525L144.257 182.434C145.83 181.446 147.405 180.456 148.878 179.534ZM239.317 166.873C239.317 191.746 228.592 214.116 211.524 229.614C211.477 229.637 208.967 231.745 207.747 232.808C199.723 239.785 195.274 250.54 195.274 262.017H165.076L180.775 190.375C184.115 191.926 190.074 194.251 195.847 194.251C198.503 194.251 200.88 193.752 202.902 192.775C206.522 191.02 209.281 187.88 210.678 183.91C212.068 179.957 211.927 175.653 210.281 171.808C207.862 166.178 202.544 162.54 196.722 162.54C194.585 162.54 192.508 163.02 190.549 163.982C183.22 167.526 179.309 177.972 177.76 183.246C177.308 182.995 176.809 182.718 176.266 182.415C175.132 181.741 173.811 180.955 172.397 180.122C171.682 179.654 170.943 179.166 170.19 178.677C169.814 178.427 169.438 178.179 169.051 177.933L168.485 177.559L168.202 177.366L168.129 177.324L168.121 177.317C168.15 177.33 168.195 177.358 168.179 177.353L168.166 177.34L168.127 177.317L167.988 177.22C166.539 176.157 165.089 175.096 163.72 174.109C163.046 173.61 162.409 173.093 161.805 172.623C161.197 172.152 160.619 171.698 160.089 171.283C160.037 171.241 159.982 171.199 159.93 171.155C164.35 166.787 171.664 158.191 171.664 149.056C171.664 139.065 164.015 130.941 154.625 130.941C145.213 130.941 137.573 139.062 137.573 149.056C137.573 158.191 144.881 166.787 149.306 171.155C149.251 171.202 149.199 171.243 149.15 171.283C148.614 171.698 148.042 172.152 147.431 172.623C146.822 173.095 146.187 173.61 145.511 174.109C144.15 175.096 142.695 176.159 141.245 177.22L141.112 177.317L141.081 177.34L141.062 177.353C141.055 177.358 141.081 177.34 141.099 177.33L141.044 177.366L140.757 177.559L140.185 177.933C139.806 178.179 139.427 178.427 139.049 178.677C138.299 179.169 137.562 179.657 136.841 180.122C135.428 180.958 134.109 181.744 132.981 182.415C132.432 182.721 131.928 182.998 131.479 183.246C129.922 177.972 126.017 167.529 118.684 163.982C116.725 163.02 114.654 162.54 112.512 162.54C106.692 162.54 101.369 166.178 98.9603 171.808C97.3068 175.653 97.1631 179.957 98.5632 183.91C99.9529 187.883 102.709 191.02 106.329 192.775C108.356 193.755 110.736 194.251 113.395 194.251C119.165 194.251 125.123 191.924 128.456 190.375L144.155 262.017H113.951C113.951 250.537 109.5 239.785 101.476 232.808C100.256 231.745 97.7404 229.637 97.7038 229.614C80.6232 214.116 69.9004 191.746 69.9004 166.873C69.9004 120.101 107.828 82.1621 154.612 82.1621C201.395 82.1621 239.317 120.101 239.317 166.873ZM195.844 189.382C190.468 189.382 184.643 186.903 181.89 185.56C183.052 181.386 186.398 171.343 192.453 168.417C193.804 167.754 195.238 167.424 196.716 167.424C200.747 167.424 204.433 169.935 206.099 173.837C207.241 176.496 207.343 179.472 206.376 182.214C205.415 184.947 203.503 187.128 200.995 188.348C199.571 189.032 197.84 189.382 195.844 189.382ZM127.333 185.56C124.58 186.903 118.763 189.382 113.39 189.382C111.391 189.382 109.66 189.032 108.231 188.345C105.726 187.125 103.814 184.947 102.847 182.212C101.886 179.469 101.983 176.496 103.124 173.835C104.801 169.932 108.484 167.422 112.507 167.422C113.983 167.422 115.424 167.748 116.778 168.414C122.835 171.343 126.179 181.386 127.333 185.56Z" fill="#10D3A4"/>
</svg>
