<svg width="67" height="66" viewBox="0 0 67 66" fill="none" xmlns="http://www.w3.org/2000/svg">
<g filter="url(#filter0_d_76_55)">
<path d="M33.2256 19.009C33.7674 20.5372 34.4627 22.0066 35.3007 23.3947L36.1875 24.8494L37.8433 24.4478C39.4173 24.0589 40.9479 23.5115 42.4116 22.814C41.7141 24.2777 41.1667 25.8083 40.7777 27.3823L40.3761 29.0381L41.8309 29.9248C43.219 30.7629 44.6885 31.4582 46.2167 32C44.6885 32.5418 43.2191 33.2371 41.831 34.0751L40.3761 34.9618L40.7778 36.6176C41.1667 38.1917 41.714 39.7223 42.4116 41.186C40.9479 40.4885 39.4173 39.9411 37.8432 39.5522L36.1875 39.1505L35.3007 40.6053C34.4627 41.9934 33.7674 43.4629 33.2256 44.9912C32.6838 43.4629 31.9885 41.9935 31.1505 40.6054L30.2638 39.1506L28.608 39.5522C27.0339 39.9411 25.5033 40.4885 24.0396 41.186C24.7371 39.7223 25.2845 38.1917 25.6734 36.6176L26.075 34.9619L24.6203 34.0752C23.2322 33.2371 21.7628 32.5418 20.2346 32C21.7628 31.4582 23.2322 30.7629 24.6203 29.9249L26.075 29.0381L25.6734 27.3824C25.2845 25.8083 24.7371 24.2777 24.0396 22.814C25.5033 23.5115 27.0339 24.0589 28.608 24.4478L30.2637 24.8495L31.1504 23.3947C31.9885 22.0067 32.6838 20.5372 33.2256 19.009ZM33.2256 2C33.2256 10.957 32.0083 17.5043 29.158 22.1801C23.8363 20.8892 18.346 17.1204 12.0124 10.7868C18.346 17.1204 22.1148 22.6107 23.4057 27.9324C18.7299 30.7827 12.1826 32 3.22559 32C12.1826 32 18.7299 33.2173 23.4057 36.0676C22.1148 41.3893 18.346 46.8796 12.0124 53.2132C18.346 46.8796 23.8362 43.1108 29.158 41.8199C32.0083 46.4958 33.2256 53.0431 33.2256 62C33.2256 53.0431 34.4429 46.4958 37.2932 41.8199C42.615 43.1108 48.1052 46.8796 54.4387 53.2132C48.1052 46.8796 44.3364 41.3894 43.0455 36.0676C47.7214 33.2173 54.2687 32 63.2256 32C54.2687 32 47.7214 30.7827 43.0455 27.9324C44.3364 22.6106 48.1051 17.1203 54.4387 10.7868C48.1052 17.1204 42.6149 20.8892 37.2932 22.1801C34.4429 17.5043 33.2256 10.957 33.2256 2Z" fill="#10D3A4"/>
</g>
<defs>
<filter id="filter0_d_76_55" x="0.225586" y="0" width="66" height="66" filterUnits="userSpaceOnUse" color-interpolation-filters="sRGB">
<feFlood flood-opacity="0" result="BackgroundImageFix"/>
<feColorMatrix in="SourceAlpha" type="matrix" values="0 0 0 0 0 0 0 0 0 0 0 0 0 0 0 0 0 0 127 0" result="hardAlpha"/>
<feOffset dy="1"/>
<feGaussianBlur stdDeviation="1.5"/>
<feComposite in2="hardAlpha" operator="out"/>
<feColorMatrix type="matrix" values="0 0 0 0 0.0627451 0 0 0 0 0.827451 0 0 0 0 0.643137 0 0 0 0.3 0"/>
<feBlend mode="normal" in2="BackgroundImageFix" result="effect1_dropShadow_76_55"/>
<feBlend mode="normal" in="SourceGraphic" in2="effect1_dropShadow_76_55" result="shape"/>
</filter>
</defs>
</svg>
