<svg width="38" height="45" viewBox="0 0 38 45" fill="none" xmlns="http://www.w3.org/2000/svg">
<g filter="url(#filter0_d_170_138)">
<path d="M8.23047 30.1924V14.8077" stroke="#10D3A4" stroke-width="2" stroke-linecap="round" stroke-linejoin="round"/>
<path d="M32.846 13.2693H26.6922C24.9928 13.2693 23.6152 14.6469 23.6152 16.3462V22.5001C23.6152 24.1994 24.9928 25.577 26.6922 25.577H32.846C34.5454 25.577 35.9229 24.1994 35.9229 22.5001V16.3462C35.9229 14.6469 34.5454 13.2693 32.846 13.2693Z" stroke="#10D3A4" stroke-width="2" stroke-linecap="round" stroke-linejoin="round"/>
<path d="M11.3079 2.5H5.15407C3.45475 2.5 2.07715 3.87758 2.07715 5.57692V11.7308C2.07715 13.4301 3.45475 14.8077 5.15407 14.8077H11.3079C13.0072 14.8077 14.3848 13.4301 14.3848 11.7308V5.57692C14.3848 3.87758 13.0072 2.5 11.3079 2.5Z" stroke="#10D3A4" stroke-width="2" stroke-linecap="round" stroke-linejoin="round"/>
<path d="M11.3079 30.1923H5.15407C3.45475 30.1923 2.07715 31.5699 2.07715 33.2692V39.423C2.07715 41.1224 3.45475 42.5 5.15407 42.5H11.3079C13.0072 42.5 14.3848 41.1224 14.3848 39.423V33.2692C14.3848 31.5699 13.0072 30.1923 11.3079 30.1923Z" stroke="#10D3A4" stroke-width="2" stroke-linecap="round" stroke-linejoin="round"/>
<path d="M23.6151 19.423H17.4612C15.0131 19.423 12.6652 20.3955 10.9341 22.1266C9.20299 23.8577 8.23047 26.2056 8.23047 28.6537" stroke="#10D3A4" stroke-width="2" stroke-linecap="round" stroke-linejoin="round"/>
</g>
<defs>
<filter id="filter0_d_170_138" x="0.0771484" y="0.5" width="37.8457" height="44" filterUnits="userSpaceOnUse" color-interpolation-filters="sRGB">
<feFlood flood-opacity="0" result="BackgroundImageFix"/>
<feColorMatrix in="SourceAlpha" type="matrix" values="0 0 0 0 0 0 0 0 0 0 0 0 0 0 0 0 0 0 127 0" result="hardAlpha"/>
<feOffset/>
<feGaussianBlur stdDeviation="0.5"/>
<feColorMatrix type="matrix" values="0 0 0 0 0.0627451 0 0 0 0 0.827451 0 0 0 0 0.643137 0 0 0 0.5 0"/>
<feBlend mode="normal" in2="BackgroundImageFix" result="effect1_dropShadow_170_138"/>
<feBlend mode="normal" in="SourceGraphic" in2="effect1_dropShadow_170_138" result="shape"/>
</filter>
</defs>
</svg>
