<svg width="30" height="43" viewBox="0 0 30 43" fill="none" xmlns="http://www.w3.org/2000/svg">
<g filter="url(#filter0_d_177_233)">
<path d="M7.02539 21.4998H9.97831L12.895 16.7379L16.645 26.4998L19.4615 21.4998H22.9732" stroke="#10D3A4" stroke-width="2" stroke-linecap="round" stroke-linejoin="round"/>
<path d="M14.9997 34.3571C22.1005 34.3571 27.8569 28.6008 27.8569 21.5C27.8569 14.3992 22.1005 8.64282 14.9997 8.64282C7.89892 8.64282 2.14258 14.3992 2.14258 21.5C2.14258 28.6008 7.89892 34.3571 14.9997 34.3571Z" stroke="#10D3A4" stroke-width="2" stroke-linecap="round" stroke-linejoin="round"/>
<path d="M22.1422 10.7857V5.78573C22.1422 5.02796 21.8411 4.30125 21.3053 3.76543C20.7695 3.22961 20.0428 2.92859 19.285 2.92859H10.7136C9.95582 2.92859 9.2291 3.22961 8.69327 3.76543C8.15747 4.30125 7.85645 5.02796 7.85645 5.78573V10.7857" stroke="#10D3A4" stroke-width="2" stroke-linecap="round" stroke-linejoin="round"/>
<path d="M22.1422 32.1697V37.2142C22.1422 37.972 21.8411 38.6988 21.3053 39.2345C20.7695 39.7702 20.0428 40.0714 19.285 40.0714H10.7136C9.95582 40.0714 9.2291 39.7702 8.69327 39.2345C8.15747 38.6988 7.85645 37.972 7.85645 37.2142V32.1697" stroke="#10D3A4" stroke-width="2" stroke-linecap="round" stroke-linejoin="round"/>
</g>
<defs>
<filter id="filter0_d_177_233" x="0.142578" y="0.928589" width="29.7139" height="41.1428" filterUnits="userSpaceOnUse" color-interpolation-filters="sRGB">
<feFlood flood-opacity="0" result="BackgroundImageFix"/>
<feColorMatrix in="SourceAlpha" type="matrix" values="0 0 0 0 0 0 0 0 0 0 0 0 0 0 0 0 0 0 127 0" result="hardAlpha"/>
<feOffset/>
<feGaussianBlur stdDeviation="0.5"/>
<feColorMatrix type="matrix" values="0 0 0 0 0.0627451 0 0 0 0 0.827451 0 0 0 0 0.643137 0 0 0 0.5 0"/>
<feBlend mode="normal" in2="BackgroundImageFix" result="effect1_dropShadow_177_233"/>
<feBlend mode="normal" in="SourceGraphic" in2="effect1_dropShadow_177_233" result="shape"/>
</filter>
</defs>
</svg>
