<svg width="31" height="30" viewBox="0 0 31 30" fill="none" xmlns="http://www.w3.org/2000/svg">
<path d="M12.8746 17.4777C12.8746 18.7701 11.9371 19.1786 10.7853 19.1786H7.76521V15.6362H10.8456C12.0911 15.6429 12.8746 16.1585 12.8746 17.4777ZM12.359 11.9665C12.359 10.7812 11.4415 10.5 10.4237 10.5H7.7719V13.5H10.6313C11.6424 13.5 12.359 13.058 12.359 11.9665ZM21.2183 13.5201C19.9929 13.5201 19.1759 14.2835 19.0956 15.5089H23.2607C23.1469 14.2701 22.504 13.5201 21.2183 13.5201ZM30.3857 3.21429V26.7857C30.3857 28.5603 28.946 30 27.1715 30H3.60003C1.82547 30 0.385742 28.5603 0.385742 26.7857V3.21429C0.385742 1.43973 1.82547 0 3.60003 0H27.1715C28.946 0 30.3857 1.43973 30.3857 3.21429ZM18.5799 10.2455H23.7898V8.97991H18.5799V10.2455ZM15.7005 17.6317C15.7005 16.0179 14.9371 14.625 13.3567 14.1763C14.5085 13.6272 15.1112 12.9911 15.1112 11.6987C15.1112 9.14062 13.2027 8.51786 10.9996 8.51786H4.93931V21.375H11.1737C13.5107 21.3616 15.7005 20.2433 15.7005 17.6317ZM25.8322 16.6406C25.8322 13.8884 24.2183 11.5915 21.3054 11.5915C18.4661 11.5915 16.5442 13.721 16.5442 16.5201C16.5442 19.4196 18.3723 21.4085 21.3054 21.4085C23.5286 21.4085 24.9683 20.4107 25.6648 18.2746H23.4081C23.1603 19.0714 22.1625 19.4866 21.3857 19.4866C19.8857 19.4866 19.1023 18.6094 19.1023 17.1228H25.8121C25.8188 16.9688 25.8322 16.8013 25.8322 16.6406Z" fill="#10D3A4"/>
</svg>
