<svg width="31" height="30" viewBox="0 0 31 30" fill="none" xmlns="http://www.w3.org/2000/svg">
<path d="M15.6153 0C11.5415 0 11.0307 0.0172674 9.43075 0.0902666C7.83418 0.163147 6.74377 0.416679 5.7896 0.78751C4.80322 1.17085 3.96671 1.68375 3.13281 2.51764C2.29892 3.35153 1.78602 4.18805 1.40269 5.17443C1.03185 6.12854 0.778322 7.21894 0.705441 8.81552C0.632442 10.4154 0.615234 10.9262 0.615234 15C0.615234 19.0738 0.632442 19.5846 0.705441 21.1845C0.778322 22.7811 1.03185 23.8715 1.40269 24.8256C1.78602 25.812 2.29892 26.6485 3.13281 27.4824C3.96671 28.3163 4.80322 28.8292 5.7896 29.2125C6.74377 29.5833 7.83418 29.8369 9.43075 29.9097C11.0307 29.9827 11.5415 30 15.6153 30C19.689 30 20.1998 29.9827 21.7997 29.9097C23.3963 29.8369 24.4867 29.5833 25.4408 29.2125C26.4272 28.8292 27.2637 28.3163 28.0977 27.4824C28.9315 26.6485 29.4444 25.812 29.8278 24.8256C30.1986 23.8715 30.4521 22.7811 30.525 21.1845C30.598 19.5846 30.6152 19.0738 30.6152 15C30.6152 10.9262 30.598 10.4154 30.525 8.81552C30.4521 7.21894 30.1986 6.12854 29.8278 5.17443C29.4444 4.18805 28.9315 3.35153 28.0977 2.51764C27.2637 1.68375 26.4272 1.17085 25.4408 0.78751C24.4867 0.416679 23.3963 0.163147 21.7997 0.0902666C20.1998 0.0172674 19.689 0 15.6153 0ZM15.6153 2.70276C19.6204 2.70276 20.0948 2.718 21.6765 2.79017C23.139 2.85691 23.9332 3.10128 24.4618 3.30664C25.162 3.57875 25.6616 3.90385 26.1865 4.42872C26.7114 4.95359 27.0365 5.45333 27.3086 6.15343C27.514 6.68199 27.7584 7.47623 27.8251 8.93871C27.8972 10.5204 27.9125 10.9948 27.9125 15C27.9125 19.0052 27.8972 19.4796 27.8251 21.0613C27.7584 22.5238 27.514 23.318 27.3086 23.8466C27.0365 24.5467 26.7114 25.0464 26.1865 25.5713C25.6616 26.0962 25.162 26.4213 24.4618 26.6934C23.9332 26.8988 23.139 27.1431 21.6765 27.2098C20.0951 27.282 19.6207 27.2973 15.6153 27.2973C11.6098 27.2973 11.1355 27.282 9.55395 27.2098C8.09146 27.1431 7.29722 26.8988 6.76866 26.6934C6.0685 26.4213 5.56882 26.0962 5.04389 25.5713C4.51903 25.0464 4.19392 24.5467 3.92187 23.8466C3.71645 23.318 3.47209 22.5238 3.40534 21.0613C3.33318 19.4796 3.31793 19.0052 3.31793 15C3.31793 10.9948 3.33318 10.5204 3.40534 8.93871C3.47209 7.47623 3.71645 6.68199 3.92187 6.15343C4.19392 5.45333 4.51903 4.95359 5.04389 4.42872C5.56882 3.90385 6.0685 3.57875 6.76866 3.30664C7.29722 3.10128 8.09146 2.85691 9.55395 2.79017C11.1356 2.718 11.6101 2.70276 15.6153 2.70276Z" fill="#10D3A4"/>
<path d="M15.6148 20.0001C12.8534 20.0001 10.6148 17.7615 10.6148 15.0001C10.6148 12.2386 12.8534 10.0001 15.6148 10.0001C18.3762 10.0001 20.6148 12.2386 20.6148 15.0001C20.6148 17.7615 18.3762 20.0001 15.6148 20.0001ZM15.6148 7.29736C11.3607 7.29736 7.91211 10.746 7.91211 15.0001C7.91211 19.2542 11.3607 22.7028 15.6148 22.7028C19.8689 22.7028 23.3175 19.2542 23.3175 15.0001C23.3175 10.746 19.8689 7.29736 15.6148 7.29736Z" fill="#10D3A4"/>
<path d="M25.4223 6.99284C25.4223 7.98697 24.6164 8.79282 23.6222 8.79282C22.6282 8.79282 21.8223 7.98697 21.8223 6.99284C21.8223 5.99872 22.6282 5.19287 23.6222 5.19287C24.6164 5.19287 25.4223 5.99872 25.4223 6.99284Z" fill="#10D3A4"/>
</svg>
