<svg width="32" height="30" viewBox="0 0 32 30" fill="none" xmlns="http://www.w3.org/2000/svg">
<rect x="1.11523" y="0.5" width="29.7704" height="29" rx="4.5" stroke="#10D3A4"/>
<path d="M7.50335 12.0874H11.2403V23.3332H7.50335V12.0874ZM9.39684 6.6665C8.11784 6.6665 7.28223 7.50618 7.28223 8.60829C7.28223 9.68772 8.09338 10.5518 9.34794 10.5518H9.37177C10.6752 10.5518 11.487 9.68768 11.487 8.60829C11.4625 7.50618 10.6753 6.6665 9.39684 6.6665ZM20.4156 11.8233C18.432 11.8233 17.5433 12.9143 17.0476 13.6795V12.0874H13.3095C13.359 13.1424 13.3095 23.3332 13.3095 23.3332H17.0476V17.0528C17.0476 16.7164 17.072 16.3813 17.1704 16.1403C17.441 15.4688 18.056 14.7734 19.0877 14.7734C20.4412 14.7734 20.9818 15.8052 20.9818 17.3163V23.3331H24.7193V16.8846C24.7193 13.4305 22.8759 11.8233 20.4156 11.8233Z" fill="#10D3A4"/>
</svg>
